<svg xmlns="http://www.w3.org/2000/svg" viewBox="0 0 512 512" width="512" height="512"><metadata><rdf:RDF xmlns:rdf="http://www.w3.org/1999/02/22-rdf-syntax-ns#" xmlns:dc="http://purl.org/dc/elements/1.1/"><rdf:Description><dc:creator>RealFaviconGenerator</dc:creator><dc:source>https://realfavicongenerator.net</dc:source></rdf:Description></rdf:RDF></metadata><rect width="512" height="512" rx="112" fill="#0f1b0f"></rect><circle cx="256" cy="138" r="62" fill="#f5c842" opacity=".92"></circle><circle cx="256" cy="138" r="42" fill="#f5a020"></circle><line x1="256" y1="60" x2="256" y2="44" stroke="#f5c842" stroke-width="10" stroke-linecap="round"></line><line x1="256" y1="216" x2="256" y2="232" stroke="#f5c842" stroke-width="10" stroke-linecap="round"></line><line x1="178" y1="138" x2="162" y2="138" stroke="#f5c842" stroke-width="10" stroke-linecap="round"></line><line x1="334" y1="138" x2="350" y2="138" stroke="#f5c842" stroke-width="10" stroke-linecap="round"></line><line x1="201" y1="85" x2="190" y2="74" stroke="#f5c842" stroke-width="10" stroke-linecap="round"></line><line x1="311" y1="191" x2="322" y2="202" stroke="#f5c842" stroke-width="10" stroke-linecap="round"></line><line x1="311" y1="85" x2="322" y2="74" stroke="#f5c842" stroke-width="10" stroke-linecap="round"></line><line x1="201" y1="191" x2="190" y2="202" stroke="#f5c842" stroke-width="10" stroke-linecap="round"></line><rect x="96" y="290" width="320" height="28" rx="8" fill="#c8a830"></rect><ellipse cx="256" cy="276" rx="148" ry="30" fill="#4a9e6a"></ellipse><ellipse cx="256" cy="268" rx="128" ry="22" fill="#6dbf5a"></ellipse><ellipse cx="190" cy="238" rx="9" ry="13" fill="#7ab8f5" opacity=".7"></ellipse><ellipse cx="256" cy="222" rx="9" ry="13" fill="#7ab8f5" opacity=".8"></ellipse><ellipse cx="322" cy="238" rx="9" ry="13" fill="#7ab8f5" opacity=".7"></ellipse><rect x="330" y="340" width="86" height="110" rx="12" fill="#1a3a1a"></rect><rect x="322" y="332" width="102" height="22" rx="8" fill="#2a5a2a"></rect><rect x="338" y="362" width="70" height="6" rx="3" fill="#6dbf5a" opacity=".5"></rect><rect x="338" y="378" width="70" height="6" rx="3" fill="#6dbf5a" opacity=".3"></rect><ellipse cx="256" cy="462" rx="170" ry="18" fill="#1a3a1a" opacity=".6"></ellipse></svg>