<svg xmlns="http://www.w3.org/2000/svg" viewBox="0 0 512 512">
  <!-- Fond arrondi — vert très foncé crufiture -->
  <rect width="512" height="512" rx="112" fill="#0f1b0f"/>

  <!-- Soleil / solaire — évaporation -->
  <circle cx="256" cy="138" r="62" fill="#f5c842" opacity=".92"/>
  <circle cx="256" cy="138" r="42" fill="#f5a020"/>
  <!-- Rayons -->
  <line x1="256" y1="60"  x2="256" y2="44"  stroke="#f5c842" stroke-width="10" stroke-linecap="round"/>
  <line x1="256" y1="216" x2="256" y2="232" stroke="#f5c842" stroke-width="10" stroke-linecap="round"/>
  <line x1="178" y1="138" x2="162" y2="138" stroke="#f5c842" stroke-width="10" stroke-linecap="round"/>
  <line x1="334" y1="138" x2="350" y2="138" stroke="#f5c842" stroke-width="10" stroke-linecap="round"/>
  <line x1="201" y1="85"  x2="190" y2="74"  stroke="#f5c842" stroke-width="10" stroke-linecap="round"/>
  <line x1="311" y1="191" x2="322" y2="202" stroke="#f5c842" stroke-width="10" stroke-linecap="round"/>
  <line x1="311" y1="85"  x2="322" y2="74"  stroke="#f5c842" stroke-width="10" stroke-linecap="round"/>
  <line x1="201" y1="191" x2="190" y2="202" stroke="#f5c842" stroke-width="10" stroke-linecap="round"/>

  <!-- Plateau / plaque de production -->
  <rect x="96" y="290" width="320" height="28" rx="8" fill="#c8a830"/>

  <!-- Mélange sur le plateau — forme organique -->
  <ellipse cx="256" cy="276" rx="148" ry="30" fill="#4a9e6a"/>
  <ellipse cx="256" cy="268" rx="128" ry="22" fill="#6dbf5a"/>

  <!-- Gouttes d'évaporation montant -->
  <ellipse cx="190" cy="238" rx="9" ry="13" fill="#7ab8f5" opacity=".7"/>
  <ellipse cx="256" cy="222" rx="9" ry="13" fill="#7ab8f5" opacity=".8"/>
  <ellipse cx="322" cy="238" rx="9" ry="13" fill="#7ab8f5" opacity=".7"/>

  <!-- Jarre en bas à droite -->
  <rect x="330" y="340" width="86" height="110" rx="12" fill="#1a3a1a"/>
  <rect x="322" y="332" width="102" height="22" rx="8" fill="#2a5a2a"/>
  <rect x="338" y="362" width="70" height="6" rx="3" fill="#6dbf5a" opacity=".5"/>
  <rect x="338" y="378" width="70" height="6" rx="3" fill="#6dbf5a" opacity=".3"/>

  <!-- Herbe / sol -->
  <ellipse cx="256" cy="462" rx="170" ry="18" fill="#1a3a1a" opacity=".6"/>
</svg>
